<?xml version="1.0" encoding="UTF-8" standalone="no"?>
<svg
   xmlns:dc="http://purl.org/dc/elements/1.1/"
   xmlns:cc="http://creativecommons.org/ns#"
   xmlns:rdf="http://www.w3.org/1999/02/22-rdf-syntax-ns#"
   xmlns:svg="http://www.w3.org/2000/svg"
   xmlns="http://www.w3.org/2000/svg"
   xmlns:xlink="http://www.w3.org/1999/xlink"
   xmlns:sodipodi="http://sodipodi.sourceforge.net/DTD/sodipodi-0.dtd"
   xmlns:inkscape="http://www.inkscape.org/namespaces/inkscape"
   inkscape:version="0.48.1 "
   sodipodi:docname="ba logo new.svg"
   viewBox="0 0 250 136"
   height="136"
   width="250"
   id="svg10"
   version="1.1">
  <metadata
     id="metadata16">
    <rdf:RDF>
      <cc:Work
         rdf:about="">
        <dc:format>image/svg+xml</dc:format>
        <dc:type
           rdf:resource="http://purl.org/dc/dcmitype/StillImage" />
        <dc:title />
      </cc:Work>
    </rdf:RDF>
  </metadata>
  <defs
     id="defs14">
    <linearGradient
       id="linearGradient880-9"
       inkscape:collect="always">
      <stop
         id="stop876"
         offset="0"
         style="stop-color:#35b4e8;stop-opacity:1" />
      <stop
         id="stop878"
         offset="1"
         style="stop-color:#f8d107;stop-opacity:1" />
    </linearGradient>
    <linearGradient
       gradientUnits="userSpaceOnUse"
       y2="264.67072"
       x2="383.70645"
       y1="467.81436"
       x1="384.60693"
       id="linearGradient882"
       xlink:href="#linearGradient880-9"
       inkscape:collect="always" />
  </defs>
  <sodipodi:namedview
     inkscape:current-layer="g891"
     inkscape:window-maximized="1"
     inkscape:window-y="-8"
     inkscape:window-x="-8"
     inkscape:cy="89.827691"
     inkscape:cx="197.28279"
     inkscape:zoom="1.203586"
     showgrid="false"
     id="namedview12"
     inkscape:window-height="657"
     inkscape:window-width="1280"
     inkscape:pageshadow="2"
     inkscape:pageopacity="0"
     guidetolerance="10"
     gridtolerance="10"
     objecttolerance="10"
     borderopacity="1"
     bordercolor="#666666"
     pagecolor="#ffffff" />
  <g
     id="g18"
     inkscape:label="Image"
     inkscape:groupmode="layer"
     transform="translate(0,53.69788)">
    <g
       transform="scale(0.16794433,0.16794433)"
       id="g896">
      <g
         id="g891">
        <path
           inkscape:connector-curvature="0"
           style="fill:#fed403;fill-opacity:1;stroke-width:0.31999999"
           d="m 724.90212,474.14449 c -25.38839,-2.20465 -49.30107,-13.31071 -67.4155,-31.31064 -4.93292,-4.90172 -9.2732,-10.14858 -13.28069,-16.05454 -1.61012,-2.37291 -3.08281,-4.37571 -3.27254,-4.45063 -0.18972,-0.0749 -5.76565,2.5029 -12.39089,5.72855 -34.99382,17.03737 -77.53745,29.75838 -119.61404,35.76601 -9.62339,1.37401 -16.44695,2.13065 -32.99245,3.65857 -8.91958,0.82368 -345.08387,1.22249 -354.54197,0.42062 -25.211109,-2.1374 -47.985846,-12.53007 -66.166004,-30.19312 -9.716484,-9.44004 -16.469041,-18.72078 -22.17101,-30.47168 -4.807333,-9.90717 -7.239813,-17.42408 -9.526649,-29.43943 -0.764954,-3.56186 -1.15894,-7.53906 -1.066264,-11.35178 L 22.292795,92.286592 c -0.123566,-197.622072 -0.01434,-281.644522 0.372766,-285.765382 2.007845,-21.3988 10.268886,-41.72683 23.721289,-58.37126 4.221939,-5.22373 13.679512,-14.3167 19.089863,-18.3539 14.111284,-10.52983 29.132208,-16.9269 47.796107,-20.3553 l 6.09091,-1.11883 154.04937,-0.16472 c 151.34767,-0.16182 166.40793,-0.0427 183.235,1.45047 41.15817,3.65208 82.38257,14.23153 119.5342,30.67618 8.54637,3.78291 25.05274,12.04224 31.49317,15.7583 46.13842,26.62122 79.39696,73.28757 89.31001,125.31446 2.21477,11.6235 2.85096,17.94758 3.14556,31.266956 0.30384,13.738468 -0.1485,21.656058 -1.89377,33.148406 -4.87309,32.088734 -18.34924,62.7190779 -38.89131,88.397178 -8.25146,10.31458 -23.99102,25.5353 -33.30328,32.20546 -1.33102,0.95335 -2.24465,1.89759 -2.03029,2.09831 0.21429,0.20074 3.75002,1.85294 7.85707,3.67158 35.3073,15.63422 66.22585,42.88764 86.36195,76.12448 3.22063,5.31598 3.34036,5.444 4.03437,4.31441 0.39337,-0.64027 44.95751,-86.65641 99.03137,-191.146952 54.07382,-104.490538 99.71305,-192.295258 101.42047,-195.121648 6.48906,-10.74171 16.47101,-22.89547 25.5996,-31.16945 22.65269,-20.53203 48.21492,-32.50998 79.10038,-37.06481 8.584,-1.26596 29.9822,-1.26674 38.5757,-0.001 17.259,2.5412 30.733,6.69935 45.4484,14.02574 26.6622,13.27433 48.1321,33.91344 62.5766,60.15502 2.9408,5.34245 277.4503,535.49582 282.9018,546.36096 5.3349,10.63279 8.8133,22.76595 10.3435,36.0792 0.7664,6.6679 0.3506,22.27438 -0.7708,28.93536 -4.213,25.0241 -17.0438,47.93591 -35.9855,64.25965 -41.0416,35.36927 -101.1699,35.40416 -142.1956,0.0824 -11.6639,-10.04231 -19.2663,-20.1194 -27.291,-36.17496 -2.3729,-4.74762 -5.6773,-10.45785 -7.3431,-12.68941 -8.711,-11.66943 -21.0572,-19.44667 -35.4114,-22.30674 -3.6757,-0.7324 -20.1081,-0.79574 -173.3373,-0.66844 l -169.27664,0.14065 -4.8042,1.41371 c -5.73988,1.68901 -12.88681,4.99313 -17.33668,8.01497 -4.98754,3.387 -11.86003,10.32495 -15.2547,15.39996 -1.67424,2.50301 -4.35353,7.30464 -5.95402,10.67022 -16.78457,35.29583 -49.78271,58.58537 -88.11263,62.18834 -5.22795,0.49143 -14.6785,0.579 -19.28791,0.17872 z"
           id="path22-6"
           sodipodi:nodetypes="ssssssssssccccssscssssssssssssssssssssssssssssscsssssss" />
      </g>
    </g>
  </g>
</svg>
